<svg width="106" height="109" viewBox="0 0 106 109" fill="none" xmlns="http://www.w3.org/2000/svg">
<path d="M31.2251 107V12.35H0V2H75V12.35H43.7749V107H31.2251Z" fill="#63B995"/>
<path d="M7 107V2H19.4972V48.35H73.5028V2H86V107H73.5028V58.7H19.4972V107H7Z" fill="#3185FC"/>
<path d="M54.5 109C44.2498 109 35.2435 106.742 27.4812 102.225C19.8184 97.6082 13.7976 91.1846 9.41884 82.9544C5.13961 74.7242 3 65.2394 3 54.5C3 43.7606 5.13961 34.326 9.41884 26.1961C13.7976 17.9659 19.8184 11.5424 27.4812 6.92542C35.2435 2.30847 44.2498 0 54.5 0C64.8498 0 73.856 2.30847 81.5188 6.92542C89.2812 11.5424 95.3019 17.9659 99.5812 26.1961C103.86 34.326 106 43.7606 106 54.5C106 65.2394 103.86 74.7242 99.5812 82.9544C95.3019 91.1846 89.2812 97.6082 81.5188 102.225C73.856 106.742 64.8498 109 54.5 109ZM54.5 97.8591C62.1628 97.8591 68.8802 96.1529 74.6522 92.7403C80.5237 89.2274 85.0517 84.2592 88.2362 77.8356C91.5203 71.3117 93.1623 63.5331 93.1623 54.5C93.1623 45.4669 91.5203 37.7385 88.2362 31.3149C85.0517 24.8913 80.5237 19.9733 74.6522 16.5608C68.8802 13.0479 62.1628 11.2914 54.5 11.2914C46.8372 11.2914 40.07 13.0479 34.1985 16.5608C28.4266 19.9733 23.8986 24.8913 20.6145 31.3149C17.4299 37.7385 15.8377 45.4669 15.8377 54.5C15.8377 63.5331 17.4299 71.3117 20.6145 77.8356C23.8986 84.2592 28.4266 89.2274 34.1985 92.7403C40.07 96.1529 46.8372 97.8591 54.5 97.8591Z" fill="#E55934"/>
<path d="M7 107V2H39.1565C57.6029 2 71.1635 6.7 79.8383 16.1C88.6128 25.5 93 38.4 93 54.8C93 70.9 88.6128 83.65 79.8383 93.05C71.1635 102.35 57.6029 107 39.1565 107H7ZM19.5635 96.5H38.8574C49.0278 96.5 57.1043 94.85 63.087 91.55C69.1693 88.15 73.5067 83.35 76.0991 77.15C78.6916 70.85 79.9878 63.4 79.9878 54.8C79.9878 46 78.6916 38.45 76.0991 32.15C73.5067 25.85 69.1693 21 63.087 17.6C57.1043 14.2 49.0278 12.5 38.8574 12.5H19.5635V96.5Z" fill="#FC3131"/>
</svg>
